<svg xmlns="http://www.w3.org/2000/svg" width="1160" height="980" viewBox="0 0 1160 980" role="img" aria-label="All Tasks Summary">
  <style>
    .bg { fill: #fafafa; }
    .title { fill: #111827; font: 700 24px system-ui, -apple-system, BlinkMacSystemFont, "Segoe UI", sans-serif; }
    .subtitle { fill: #4b5563; font: 400 13px system-ui, -apple-system, BlinkMacSystemFont, "Segoe UI", sans-serif; }
    .panel-title { fill: #111827; font: 700 16px system-ui, -apple-system, BlinkMacSystemFont, "Segoe UI", sans-serif; }
    .axis { stroke: #374151; stroke-width: 1; }
    .grid { stroke: #e5e7eb; stroke-width: 1; }
    .axis-label, .x-label { fill: #4b5563; font: 400 11px system-ui, -apple-system, BlinkMacSystemFont, "Segoe UI", sans-serif; }
    .value-label { fill: #111827; font: 600 10px system-ui, -apple-system, BlinkMacSystemFont, "Segoe UI", sans-serif; }
    .note { fill: #4b5563; font: 400 12px system-ui, -apple-system, BlinkMacSystemFont, "Segoe UI", sans-serif; }
    .legend-text { fill: #111827; font: 500 12px system-ui, -apple-system, BlinkMacSystemFont, "Segoe UI", sans-serif; }
  </style>
  <rect width="100%" height="100%" class="bg"/>
  <text x="32" y="38" class="title">All Tasks Summary</text>
  <text x="32" y="60" class="subtitle">Runtime, peak memory, and post-load memory for task=all across generated CSV sizes; lower is better.</text>
  <text x="32" y="112" class="panel-title">Runtime by file size</text>
<line x1="90" y1="188.2" x2="1098" y2="188.2" class="grid"/>
<text x="80" y="192.2" class="axis-label" text-anchor="end">4.60</text>
<line x1="90" y1="161.1" x2="1098" y2="161.1" class="grid"/>
<text x="80" y="165.1" class="axis-label" text-anchor="end">9.19</text>
<line x1="90" y1="145.25" x2="1098" y2="145.25" class="grid"/>
<text x="80" y="149.25" class="axis-label" text-anchor="end">13.8</text>
<line x1="90" y1="134.0" x2="1098" y2="134.0" class="grid"/>
<text x="80" y="138.0" class="axis-label" text-anchor="end">18.4</text>
<line x1="90" y1="278" x2="1098" y2="278" class="axis"/>
<line x1="90" y1="134" x2="90" y2="278" class="axis"/>
<text x="90.0" y="302" class="x-label" text-anchor="middle">1K rows</text>
<text x="594.0" y="302" class="x-label" text-anchor="middle">10K rows</text>
<text x="1098.0" y="302" class="x-label" text-anchor="middle">1M rows</text>
<polyline points="90.0,274.52 594.0,267.52 1098.0,134.0" fill="none" stroke="#0f766e" stroke-width="3"/>
<circle cx="90.0" cy="274.52" r="4" fill="#0f766e"/>
<circle cx="594.0" cy="267.52" r="4" fill="#0f766e"/>
<circle cx="1098.0" cy="134.0" r="4" fill="#0f766e"/>
<polyline points="90.0,278.0 594.0,274.85 1098.0,177.41" fill="none" stroke="#2563eb" stroke-width="3"/>
<circle cx="90.0" cy="278.0" r="4" fill="#2563eb"/>
<circle cx="594.0" cy="274.85" r="4" fill="#2563eb"/>
<circle cx="1098.0" cy="177.41" r="4" fill="#2563eb"/>
<polyline points="90.0,267.42 594.0,273.42 1098.0,255.52" fill="none" stroke="#dc2626" stroke-width="3"/>
<circle cx="90.0" cy="267.42" r="4" fill="#dc2626"/>
<circle cx="594.0" cy="273.42" r="4" fill="#dc2626"/>
<circle cx="1098.0" cy="255.52" r="4" fill="#dc2626"/>
<polyline points="90.0,272.89 594.0,274.22 1098.0,253.24" fill="none" stroke="#7c3aed" stroke-width="3"/>
<circle cx="90.0" cy="272.89" r="4" fill="#7c3aed"/>
<circle cx="594.0" cy="274.22" r="4" fill="#7c3aed"/>
<circle cx="1098.0" cy="253.24" r="4" fill="#7c3aed"/>
<polyline points="90.0,266.61 594.0,274.4 1098.0,238.96" fill="none" stroke="#ca8a04" stroke-width="3"/>
<circle cx="90.0" cy="266.61" r="4" fill="#ca8a04"/>
<circle cx="594.0" cy="274.4" r="4" fill="#ca8a04"/>
<circle cx="1098.0" cy="238.96" r="4" fill="#ca8a04"/>
<rect x="90" y="314" width="12" height="12" fill="#0f766e"/>
<text x="108" y="324" class="legend-text">Ruby CSV</text>
<rect x="252" y="314" width="12" height="12" fill="#2563eb"/>
<text x="270" y="324" class="legend-text">SmarterCSV</text>
<rect x="414" y="314" width="12" height="12" fill="#dc2626"/>
<text x="432" y="324" class="legend-text">Polars</text>
<rect x="576" y="314" width="12" height="12" fill="#7c3aed"/>
<text x="594" y="324" class="legend-text">Polars low memory</text>
<rect x="738" y="314" width="12" height="12" fill="#ca8a04"/>
<text x="756" y="324" class="legend-text">DuckDB</text>
<text x="1098" y="126" class="note" text-anchor="end">seconds, log scale</text>
<text x="32" y="402" class="panel-title">Peak anonymous memory by file size</text>
<line x1="90" y1="490.75" x2="1098" y2="490.75" class="grid"/>
<text x="80" y="494.75" class="axis-label" text-anchor="end">112</text>
<line x1="90" y1="457.38" x2="1098" y2="457.38" class="grid"/>
<text x="80" y="461.38" class="axis-label" text-anchor="end">223</text>
<line x1="90" y1="437.85" x2="1098" y2="437.85" class="grid"/>
<text x="80" y="441.85" class="axis-label" text-anchor="end">335</text>
<line x1="90" y1="424.0" x2="1098" y2="424.0" class="grid"/>
<text x="80" y="428.0" class="axis-label" text-anchor="end">447</text>
<line x1="90" y1="568" x2="1098" y2="568" class="axis"/>
<line x1="90" y1="424" x2="90" y2="568" class="axis"/>
<text x="90.0" y="592" class="x-label" text-anchor="middle">1K rows</text>
<text x="594.0" y="592" class="x-label" text-anchor="middle">10K rows</text>
<text x="1098.0" y="592" class="x-label" text-anchor="middle">1M rows</text>
<polyline points="90.0,567.06 594.0,562.38 1098.0,424.0" fill="none" stroke="#0f766e" stroke-width="3"/>
<circle cx="90.0" cy="567.06" r="4" fill="#0f766e"/>
<circle cx="594.0" cy="562.38" r="4" fill="#0f766e"/>
<circle cx="1098.0" cy="424.0" r="4" fill="#0f766e"/>
<polyline points="90.0,568.0 594.0,558.21 1098.0,440.82" fill="none" stroke="#2563eb" stroke-width="3"/>
<circle cx="90.0" cy="568.0" r="4" fill="#2563eb"/>
<circle cx="594.0" cy="558.21" r="4" fill="#2563eb"/>
<circle cx="1098.0" cy="440.82" r="4" fill="#2563eb"/>
<polyline points="90.0,551.45 594.0,547.64 1098.0,435.92" fill="none" stroke="#dc2626" stroke-width="3"/>
<circle cx="90.0" cy="551.45" r="4" fill="#dc2626"/>
<circle cx="594.0" cy="547.64" r="4" fill="#dc2626"/>
<circle cx="1098.0" cy="435.92" r="4" fill="#dc2626"/>
<polyline points="90.0,551.58 594.0,547.04 1098.0,438.81" fill="none" stroke="#7c3aed" stroke-width="3"/>
<circle cx="90.0" cy="551.58" r="4" fill="#7c3aed"/>
<circle cx="594.0" cy="547.04" r="4" fill="#7c3aed"/>
<circle cx="1098.0" cy="438.81" r="4" fill="#7c3aed"/>
<polyline points="90.0,550.06 594.0,543.75 1098.0,458.21" fill="none" stroke="#ca8a04" stroke-width="3"/>
<circle cx="90.0" cy="550.06" r="4" fill="#ca8a04"/>
<circle cx="594.0" cy="543.75" r="4" fill="#ca8a04"/>
<circle cx="1098.0" cy="458.21" r="4" fill="#ca8a04"/>
<rect x="90" y="604" width="12" height="12" fill="#0f766e"/>
<text x="108" y="614" class="legend-text">Ruby CSV</text>
<rect x="252" y="604" width="12" height="12" fill="#2563eb"/>
<text x="270" y="614" class="legend-text">SmarterCSV</text>
<rect x="414" y="604" width="12" height="12" fill="#dc2626"/>
<text x="432" y="614" class="legend-text">Polars</text>
<rect x="576" y="604" width="12" height="12" fill="#7c3aed"/>
<text x="594" y="614" class="legend-text">Polars low memory</text>
<rect x="738" y="604" width="12" height="12" fill="#ca8a04"/>
<text x="756" y="614" class="legend-text">DuckDB</text>
<text x="1098" y="416" class="note" text-anchor="end">MiB, log scale</text>
<text x="32" y="692" class="panel-title">Post-load anonymous memory by file size</text>
<line x1="90" y1="781.21" x2="1098" y2="781.21" class="grid"/>
<text x="80" y="785.21" class="axis-label" text-anchor="end">112</text>
<line x1="90" y1="747.6" x2="1098" y2="747.6" class="grid"/>
<text x="80" y="751.6" class="axis-label" text-anchor="end">223</text>
<line x1="90" y1="727.95" x2="1098" y2="727.95" class="grid"/>
<text x="80" y="731.95" class="axis-label" text-anchor="end">335</text>
<line x1="90" y1="714.0" x2="1098" y2="714.0" class="grid"/>
<text x="80" y="718.0" class="axis-label" text-anchor="end">446</text>
<line x1="90" y1="858" x2="1098" y2="858" class="axis"/>
<line x1="90" y1="714" x2="90" y2="858" class="axis"/>
<text x="90.0" y="882" class="x-label" text-anchor="middle">1K rows</text>
<text x="594.0" y="882" class="x-label" text-anchor="middle">10K rows</text>
<text x="1098.0" y="882" class="x-label" text-anchor="middle">1M rows</text>
<polyline points="90.0,858.0 594.0,853.28 1098.0,714.0" fill="none" stroke="#0f766e" stroke-width="3"/>
<circle cx="90.0" cy="858.0" r="4" fill="#0f766e"/>
<circle cx="594.0" cy="853.28" r="4" fill="#0f766e"/>
<circle cx="1098.0" cy="714.0" r="4" fill="#0f766e"/>
<polyline points="90.0,857.44 594.0,849.09 1098.0,731.02" fill="none" stroke="#2563eb" stroke-width="3"/>
<circle cx="90.0" cy="857.44" r="4" fill="#2563eb"/>
<circle cx="594.0" cy="849.09" r="4" fill="#2563eb"/>
<circle cx="1098.0" cy="731.02" r="4" fill="#2563eb"/>
<polyline points="90.0,843.61 594.0,841.49 1098.0,764.56" fill="none" stroke="#dc2626" stroke-width="3"/>
<circle cx="90.0" cy="843.61" r="4" fill="#dc2626"/>
<circle cx="594.0" cy="841.49" r="4" fill="#dc2626"/>
<circle cx="1098.0" cy="764.56" r="4" fill="#dc2626"/>
<polyline points="90.0,843.89 594.0,842.49 1098.0,788.37" fill="none" stroke="#7c3aed" stroke-width="3"/>
<circle cx="90.0" cy="843.89" r="4" fill="#7c3aed"/>
<circle cx="594.0" cy="842.49" r="4" fill="#7c3aed"/>
<circle cx="1098.0" cy="788.37" r="4" fill="#7c3aed"/>
<polyline points="90.0,843.08 594.0,842.6 1098.0,790.14" fill="none" stroke="#ca8a04" stroke-width="3"/>
<circle cx="90.0" cy="843.08" r="4" fill="#ca8a04"/>
<circle cx="594.0" cy="842.6" r="4" fill="#ca8a04"/>
<circle cx="1098.0" cy="790.14" r="4" fill="#ca8a04"/>
<rect x="90" y="894" width="12" height="12" fill="#0f766e"/>
<text x="108" y="904" class="legend-text">Ruby CSV</text>
<rect x="252" y="894" width="12" height="12" fill="#2563eb"/>
<text x="270" y="904" class="legend-text">SmarterCSV</text>
<rect x="414" y="894" width="12" height="12" fill="#dc2626"/>
<text x="432" y="904" class="legend-text">Polars</text>
<rect x="576" y="894" width="12" height="12" fill="#7c3aed"/>
<text x="594" y="904" class="legend-text">Polars low memory</text>
<rect x="738" y="894" width="12" height="12" fill="#ca8a04"/>
<text x="756" y="904" class="legend-text">DuckDB</text>
<text x="1098" y="706" class="note" text-anchor="end">MiB, log scale</text>

</svg>
