<svg xmlns="http://www.w3.org/2000/svg" width="1160" height="980" viewBox="0 0 1160 980" role="img" aria-label="All Tasks Summary">
  <style>
    .bg { fill: #fafafa; }
    .title { fill: #111827; font: 700 24px system-ui, -apple-system, BlinkMacSystemFont, "Segoe UI", sans-serif; }
    .subtitle { fill: #4b5563; font: 400 13px system-ui, -apple-system, BlinkMacSystemFont, "Segoe UI", sans-serif; }
    .panel-title { fill: #111827; font: 700 16px system-ui, -apple-system, BlinkMacSystemFont, "Segoe UI", sans-serif; }
    .axis { stroke: #374151; stroke-width: 1; }
    .grid { stroke: #e5e7eb; stroke-width: 1; }
    .axis-label, .x-label { fill: #4b5563; font: 400 11px system-ui, -apple-system, BlinkMacSystemFont, "Segoe UI", sans-serif; }
    .value-label { fill: #111827; font: 600 10px system-ui, -apple-system, BlinkMacSystemFont, "Segoe UI", sans-serif; }
    .note { fill: #4b5563; font: 400 12px system-ui, -apple-system, BlinkMacSystemFont, "Segoe UI", sans-serif; }
    .legend-text { fill: #111827; font: 500 12px system-ui, -apple-system, BlinkMacSystemFont, "Segoe UI", sans-serif; }
  </style>
  <rect width="100%" height="100%" class="bg"/>
  <text x="32" y="38" class="title">All Tasks Summary</text>
  <text x="32" y="60" class="subtitle">Runtime, peak memory, and post-load memory for task=all across generated CSV sizes; lower is better.</text>
  <text x="32" y="112" class="panel-title">Runtime by file size</text>
<line x1="90" y1="187.32" x2="1098" y2="187.32" class="grid"/>
<text x="80" y="191.32" class="axis-label" text-anchor="end">4.88</text>
<line x1="90" y1="160.66" x2="1098" y2="160.66" class="grid"/>
<text x="80" y="164.66" class="axis-label" text-anchor="end">9.76</text>
<line x1="90" y1="145.07" x2="1098" y2="145.07" class="grid"/>
<text x="80" y="149.07" class="axis-label" text-anchor="end">14.6</text>
<line x1="90" y1="134.0" x2="1098" y2="134.0" class="grid"/>
<text x="80" y="138.0" class="axis-label" text-anchor="end">19.5</text>
<line x1="90" y1="278" x2="1098" y2="278" class="axis"/>
<line x1="90" y1="134" x2="90" y2="278" class="axis"/>
<text x="90.0" y="302" class="x-label" text-anchor="middle">1K rows</text>
<text x="594.0" y="302" class="x-label" text-anchor="middle">10K rows</text>
<text x="1098.0" y="302" class="x-label" text-anchor="middle">1M rows</text>
<polyline points="90.0,275.66 594.0,267.81 1098.0,134.0" fill="none" stroke="#0f766e" stroke-width="3"/>
<circle cx="90.0" cy="275.66" r="4" fill="#0f766e"/>
<circle cx="594.0" cy="267.81" r="4" fill="#0f766e"/>
<circle cx="1098.0" cy="134.0" r="4" fill="#0f766e"/>
<polyline points="90.0,278.0 594.0,266.09 1098.0,177.41" fill="none" stroke="#2563eb" stroke-width="3"/>
<circle cx="90.0" cy="278.0" r="4" fill="#2563eb"/>
<circle cx="594.0" cy="266.09" r="4" fill="#2563eb"/>
<circle cx="1098.0" cy="177.41" r="4" fill="#2563eb"/>
<polyline points="90.0,265.44 594.0,274.12 1098.0,253.96" fill="none" stroke="#dc2626" stroke-width="3"/>
<circle cx="90.0" cy="265.44" r="4" fill="#dc2626"/>
<circle cx="594.0" cy="274.12" r="4" fill="#dc2626"/>
<circle cx="1098.0" cy="253.96" r="4" fill="#dc2626"/>
<polyline points="90.0,274.72 594.0,273.64 1098.0,252.44" fill="none" stroke="#7c3aed" stroke-width="3"/>
<circle cx="90.0" cy="274.72" r="4" fill="#7c3aed"/>
<circle cx="594.0" cy="273.64" r="4" fill="#7c3aed"/>
<circle cx="1098.0" cy="252.44" r="4" fill="#7c3aed"/>
<polyline points="90.0,270.95 594.0,271.97 1098.0,241.14" fill="none" stroke="#ca8a04" stroke-width="3"/>
<circle cx="90.0" cy="270.95" r="4" fill="#ca8a04"/>
<circle cx="594.0" cy="271.97" r="4" fill="#ca8a04"/>
<circle cx="1098.0" cy="241.14" r="4" fill="#ca8a04"/>
<rect x="90" y="314" width="12" height="12" fill="#0f766e"/>
<text x="108" y="324" class="legend-text">Ruby CSV</text>
<rect x="252" y="314" width="12" height="12" fill="#2563eb"/>
<text x="270" y="324" class="legend-text">SmarterCSV</text>
<rect x="414" y="314" width="12" height="12" fill="#dc2626"/>
<text x="432" y="324" class="legend-text">Polars</text>
<rect x="576" y="314" width="12" height="12" fill="#7c3aed"/>
<text x="594" y="324" class="legend-text">Polars low memory</text>
<rect x="738" y="314" width="12" height="12" fill="#ca8a04"/>
<text x="756" y="324" class="legend-text">DuckDB</text>
<text x="1098" y="126" class="note" text-anchor="end">seconds, log scale</text>
<text x="32" y="402" class="panel-title">Peak anonymous memory by file size</text>
<line x1="90" y1="493.82" x2="1098" y2="493.82" class="grid"/>
<text x="80" y="497.82" class="axis-label" text-anchor="end">97.4</text>
<line x1="90" y1="458.91" x2="1098" y2="458.91" class="grid"/>
<text x="80" y="462.91" class="axis-label" text-anchor="end">195</text>
<line x1="90" y1="438.49" x2="1098" y2="438.49" class="grid"/>
<text x="80" y="442.49" class="axis-label" text-anchor="end">292</text>
<line x1="90" y1="424.0" x2="1098" y2="424.0" class="grid"/>
<text x="80" y="428.0" class="axis-label" text-anchor="end">389</text>
<line x1="90" y1="568" x2="1098" y2="568" class="axis"/>
<line x1="90" y1="424" x2="90" y2="568" class="axis"/>
<text x="90.0" y="592" class="x-label" text-anchor="middle">1K rows</text>
<text x="594.0" y="592" class="x-label" text-anchor="middle">10K rows</text>
<text x="1098.0" y="592" class="x-label" text-anchor="middle">1M rows</text>
<polyline points="90.0,568.0 594.0,561.88 1098.0,424.0" fill="none" stroke="#0f766e" stroke-width="3"/>
<circle cx="90.0" cy="568.0" r="4" fill="#0f766e"/>
<circle cx="594.0" cy="561.88" r="4" fill="#0f766e"/>
<circle cx="1098.0" cy="424.0" r="4" fill="#0f766e"/>
<polyline points="90.0,566.7 594.0,557.24 1098.0,434.67" fill="none" stroke="#2563eb" stroke-width="3"/>
<circle cx="90.0" cy="566.7" r="4" fill="#2563eb"/>
<circle cx="594.0" cy="557.24" r="4" fill="#2563eb"/>
<circle cx="1098.0" cy="434.67" r="4" fill="#2563eb"/>
<polyline points="90.0,550.06 594.0,546.6 1098.0,427.5" fill="none" stroke="#dc2626" stroke-width="3"/>
<circle cx="90.0" cy="550.06" r="4" fill="#dc2626"/>
<circle cx="594.0" cy="546.6" r="4" fill="#dc2626"/>
<circle cx="1098.0" cy="427.5" r="4" fill="#dc2626"/>
<polyline points="90.0,549.56 594.0,546.41 1098.0,435.53" fill="none" stroke="#7c3aed" stroke-width="3"/>
<circle cx="90.0" cy="549.56" r="4" fill="#7c3aed"/>
<circle cx="594.0" cy="546.41" r="4" fill="#7c3aed"/>
<circle cx="1098.0" cy="435.53" r="4" fill="#7c3aed"/>
<polyline points="90.0,548.99 594.0,542.36 1098.0,452.28" fill="none" stroke="#ca8a04" stroke-width="3"/>
<circle cx="90.0" cy="548.99" r="4" fill="#ca8a04"/>
<circle cx="594.0" cy="542.36" r="4" fill="#ca8a04"/>
<circle cx="1098.0" cy="452.28" r="4" fill="#ca8a04"/>
<rect x="90" y="604" width="12" height="12" fill="#0f766e"/>
<text x="108" y="614" class="legend-text">Ruby CSV</text>
<rect x="252" y="604" width="12" height="12" fill="#2563eb"/>
<text x="270" y="614" class="legend-text">SmarterCSV</text>
<rect x="414" y="604" width="12" height="12" fill="#dc2626"/>
<text x="432" y="614" class="legend-text">Polars</text>
<rect x="576" y="604" width="12" height="12" fill="#7c3aed"/>
<text x="594" y="614" class="legend-text">Polars low memory</text>
<rect x="738" y="604" width="12" height="12" fill="#ca8a04"/>
<text x="756" y="614" class="legend-text">DuckDB</text>
<text x="1098" y="416" class="note" text-anchor="end">MiB, log scale</text>
<text x="32" y="692" class="panel-title">Post-load anonymous memory by file size</text>
<line x1="90" y1="783.86" x2="1098" y2="783.86" class="grid"/>
<text x="80" y="787.86" class="axis-label" text-anchor="end">97.2</text>
<line x1="90" y1="748.93" x2="1098" y2="748.93" class="grid"/>
<text x="80" y="752.93" class="axis-label" text-anchor="end">194</text>
<line x1="90" y1="728.5" x2="1098" y2="728.5" class="grid"/>
<text x="80" y="732.5" class="axis-label" text-anchor="end">292</text>
<line x1="90" y1="714.0" x2="1098" y2="714.0" class="grid"/>
<text x="80" y="718.0" class="axis-label" text-anchor="end">389</text>
<line x1="90" y1="858" x2="1098" y2="858" class="axis"/>
<line x1="90" y1="714" x2="90" y2="858" class="axis"/>
<text x="90.0" y="882" class="x-label" text-anchor="middle">1K rows</text>
<text x="594.0" y="882" class="x-label" text-anchor="middle">10K rows</text>
<text x="1098.0" y="882" class="x-label" text-anchor="middle">1M rows</text>
<polyline points="90.0,858.0 594.0,851.88 1098.0,714.0" fill="none" stroke="#0f766e" stroke-width="3"/>
<circle cx="90.0" cy="858.0" r="4" fill="#0f766e"/>
<circle cx="594.0" cy="851.88" r="4" fill="#0f766e"/>
<circle cx="1098.0" cy="714.0" r="4" fill="#0f766e"/>
<polyline points="90.0,856.69 594.0,847.23 1098.0,724.71" fill="none" stroke="#2563eb" stroke-width="3"/>
<circle cx="90.0" cy="856.69" r="4" fill="#2563eb"/>
<circle cx="594.0" cy="847.23" r="4" fill="#2563eb"/>
<circle cx="1098.0" cy="724.71" r="4" fill="#2563eb"/>
<polyline points="90.0,841.91 594.0,839.55 1098.0,759.52" fill="none" stroke="#dc2626" stroke-width="3"/>
<circle cx="90.0" cy="841.91" r="4" fill="#dc2626"/>
<circle cx="594.0" cy="839.55" r="4" fill="#dc2626"/>
<circle cx="1098.0" cy="759.52" r="4" fill="#dc2626"/>
<polyline points="90.0,842.25 594.0,840.55 1098.0,784.4" fill="none" stroke="#7c3aed" stroke-width="3"/>
<circle cx="90.0" cy="842.25" r="4" fill="#7c3aed"/>
<circle cx="594.0" cy="840.55" r="4" fill="#7c3aed"/>
<circle cx="1098.0" cy="784.4" r="4" fill="#7c3aed"/>
<polyline points="90.0,841.19 594.0,839.86 1098.0,786.17" fill="none" stroke="#ca8a04" stroke-width="3"/>
<circle cx="90.0" cy="841.19" r="4" fill="#ca8a04"/>
<circle cx="594.0" cy="839.86" r="4" fill="#ca8a04"/>
<circle cx="1098.0" cy="786.17" r="4" fill="#ca8a04"/>
<rect x="90" y="894" width="12" height="12" fill="#0f766e"/>
<text x="108" y="904" class="legend-text">Ruby CSV</text>
<rect x="252" y="894" width="12" height="12" fill="#2563eb"/>
<text x="270" y="904" class="legend-text">SmarterCSV</text>
<rect x="414" y="894" width="12" height="12" fill="#dc2626"/>
<text x="432" y="904" class="legend-text">Polars</text>
<rect x="576" y="894" width="12" height="12" fill="#7c3aed"/>
<text x="594" y="904" class="legend-text">Polars low memory</text>
<rect x="738" y="894" width="12" height="12" fill="#ca8a04"/>
<text x="756" y="904" class="legend-text">DuckDB</text>
<text x="1098" y="706" class="note" text-anchor="end">MiB, log scale</text>

</svg>
