<svg xmlns="http://www.w3.org/2000/svg" width="1120" height="1016" viewBox="0 0 1120 1016" role="img" aria-label="Post-Load Memory">
  <style>
    .bg { fill: #fafafa; }
    .title { fill: #111827; font: 700 24px system-ui, -apple-system, BlinkMacSystemFont, "Segoe UI", sans-serif; }
    .subtitle { fill: #4b5563; font: 400 13px system-ui, -apple-system, BlinkMacSystemFont, "Segoe UI", sans-serif; }
    .panel-title { fill: #111827; font: 700 16px system-ui, -apple-system, BlinkMacSystemFont, "Segoe UI", sans-serif; }
    .axis { stroke: #374151; stroke-width: 1; }
    .grid { stroke: #e5e7eb; stroke-width: 1; }
    .axis-label, .x-label { fill: #4b5563; font: 400 11px system-ui, -apple-system, BlinkMacSystemFont, "Segoe UI", sans-serif; }
    .value-label { fill: #111827; font: 600 10px system-ui, -apple-system, BlinkMacSystemFont, "Segoe UI", sans-serif; }
    .note { fill: #4b5563; font: 400 12px system-ui, -apple-system, BlinkMacSystemFont, "Segoe UI", sans-serif; }
    .legend-text { fill: #111827; font: 500 12px system-ui, -apple-system, BlinkMacSystemFont, "Segoe UI", sans-serif; }
  </style>
  <rect width="100%" height="100%" class="bg"/>
  <text x="32" y="38" class="title">Post-Load Memory</text>
  <text x="32" y="60" class="subtitle">Anonymous memory at the post_file_read checkpoint for task=all; lower is better.</text>
  <text x="32" y="112" class="panel-title">1K rows</text>
<line x1="90" y1="270.0" x2="1070" y2="270.0" class="grid"/>
<text x="80" y="274.0" class="axis-label" text-anchor="end">0</text>
<line x1="90" y1="236.0" x2="1070" y2="236.0" class="grid"/>
<text x="80" y="240.0" class="axis-label" text-anchor="end">8.72</text>
<line x1="90" y1="202.0" x2="1070" y2="202.0" class="grid"/>
<text x="80" y="206.0" class="axis-label" text-anchor="end">17.4</text>
<line x1="90" y1="168.0" x2="1070" y2="168.0" class="grid"/>
<text x="80" y="172.0" class="axis-label" text-anchor="end">26.2</text>
<line x1="90" y1="134.0" x2="1070" y2="134.0" class="grid"/>
<text x="80" y="138.0" class="axis-label" text-anchor="end">34.9</text>
<line x1="90" y1="270" x2="1070" y2="270" class="axis"/>
<line x1="90" y1="134" x2="90" y2="270" class="axis"/>
<rect x="90.0" y="180.74" width="184.8" height="89.26" fill="#0f766e"/>
<text x="182.4" y="173.74" class="value-label" text-anchor="middle">22.9 MiB</text>
<text x="182.4" y="288" class="x-label" text-anchor="end" transform="rotate(-35 182.4 288)">Ruby CSV</text>
<rect x="288.8" y="179.71" width="184.8" height="90.29" fill="#2563eb"/>
<text x="381.2" y="172.71" class="value-label" text-anchor="middle">23.2 MiB</text>
<text x="381.2" y="288" class="x-label" text-anchor="end" transform="rotate(-35 381.2 288)">SmarterCSV</text>
<rect x="487.6" y="149.9" width="184.8" height="120.1" fill="#dc2626"/>
<text x="580.0" y="142.9" class="value-label" text-anchor="middle">30.8 MiB</text>
<text x="580.0" y="288" class="x-label" text-anchor="end" transform="rotate(-35 580.0 288)">Polars</text>
<rect x="686.4" y="150.58" width="184.8" height="119.42" fill="#7c3aed"/>
<text x="778.8" y="143.58" class="value-label" text-anchor="middle">30.6 MiB</text>
<text x="778.8" y="288" class="x-label" text-anchor="end" transform="rotate(-35 778.8 288)">Polars low memory</text>
<rect x="885.2" y="148.57" width="184.8" height="121.43" fill="#ca8a04"/>
<text x="977.6" y="141.57" class="value-label" text-anchor="middle">31.2 MiB</text>
<text x="977.6" y="288" class="x-label" text-anchor="end" transform="rotate(-35 977.6 288)">DuckDB</text>
<text x="32" y="420" class="panel-title">10K rows</text>
<line x1="90" y1="578.0" x2="1070" y2="578.0" class="grid"/>
<text x="80" y="582.0" class="axis-label" text-anchor="end">0</text>
<line x1="90" y1="544.0" x2="1070" y2="544.0" class="grid"/>
<text x="80" y="548.0" class="axis-label" text-anchor="end">9.01</text>
<line x1="90" y1="510.0" x2="1070" y2="510.0" class="grid"/>
<text x="80" y="514.0" class="axis-label" text-anchor="end">18.0</text>
<line x1="90" y1="476.0" x2="1070" y2="476.0" class="grid"/>
<text x="80" y="480.0" class="axis-label" text-anchor="end">27.0</text>
<line x1="90" y1="442.0" x2="1070" y2="442.0" class="grid"/>
<text x="80" y="446.0" class="axis-label" text-anchor="end">36.0</text>
<line x1="90" y1="578" x2="1070" y2="578" class="axis"/>
<line x1="90" y1="442" x2="90" y2="578" class="axis"/>
<rect x="90.0" y="482.79" width="184.8" height="95.21" fill="#0f766e"/>
<text x="182.4" y="475.79" class="value-label" text-anchor="middle">25.2 MiB</text>
<text x="182.4" y="596" class="x-label" text-anchor="end" transform="rotate(-35 182.4 596)">Ruby CSV</text>
<rect x="288.8" y="474.18" width="184.8" height="103.82" fill="#2563eb"/>
<text x="381.2" y="467.18" class="value-label" text-anchor="middle">27.5 MiB</text>
<text x="381.2" y="596" class="x-label" text-anchor="end" transform="rotate(-35 381.2 596)">SmarterCSV</text>
<rect x="487.6" y="456.57" width="184.8" height="121.43" fill="#dc2626"/>
<text x="580.0" y="449.57" class="value-label" text-anchor="middle">32.2 MiB</text>
<text x="580.0" y="596" class="x-label" text-anchor="end" transform="rotate(-35 580.0 596)">Polars</text>
<rect x="686.4" y="459.05" width="184.8" height="118.95" fill="#7c3aed"/>
<text x="778.8" y="452.05" class="value-label" text-anchor="middle">31.5 MiB</text>
<text x="778.8" y="596" class="x-label" text-anchor="end" transform="rotate(-35 778.8 596)">Polars low memory</text>
<rect x="885.2" y="459.33" width="184.8" height="118.67" fill="#ca8a04"/>
<text x="977.6" y="452.33" class="value-label" text-anchor="middle">31.5 MiB</text>
<text x="977.6" y="596" class="x-label" text-anchor="end" transform="rotate(-35 977.6 596)">DuckDB</text>
<text x="32" y="728" class="panel-title">1M rows</text>
<line x1="90" y1="886.0" x2="1070" y2="886.0" class="grid"/>
<text x="80" y="890.0" class="axis-label" text-anchor="end">0</text>
<line x1="90" y1="852.0" x2="1070" y2="852.0" class="grid"/>
<text x="80" y="856.0" class="axis-label" text-anchor="end">125</text>
<line x1="90" y1="818.0" x2="1070" y2="818.0" class="grid"/>
<text x="80" y="822.0" class="axis-label" text-anchor="end">250</text>
<line x1="90" y1="784.0" x2="1070" y2="784.0" class="grid"/>
<text x="80" y="788.0" class="axis-label" text-anchor="end">375</text>
<line x1="90" y1="750.0" x2="1070" y2="750.0" class="grid"/>
<text x="80" y="754.0" class="axis-label" text-anchor="end">500</text>
<line x1="90" y1="886" x2="1070" y2="886" class="axis"/>
<line x1="90" y1="750" x2="90" y2="886" class="axis"/>
<rect x="90.0" y="764.57" width="184.8" height="121.43" fill="#0f766e"/>
<text x="182.4" y="757.57" class="value-label" text-anchor="middle">446 MiB</text>
<text x="182.4" y="904" class="x-label" text-anchor="end" transform="rotate(-35 182.4 904)">Ruby CSV</text>
<rect x="288.8" y="800.52" width="184.8" height="85.48" fill="#2563eb"/>
<text x="381.2" y="793.52" class="value-label" text-anchor="middle">314 MiB</text>
<text x="381.2" y="904" class="x-label" text-anchor="end" transform="rotate(-35 381.2 904)">SmarterCSV</text>
<rect x="487.6" y="843.21" width="184.8" height="42.79" fill="#dc2626"/>
<text x="580.0" y="836.21" class="value-label" text-anchor="middle">157 MiB</text>
<text x="580.0" y="904" class="x-label" text-anchor="end" transform="rotate(-35 580.0 904)">Polars</text>
<rect x="686.4" y="859.81" width="184.8" height="26.19" fill="#7c3aed"/>
<text x="778.8" y="852.81" class="value-label" text-anchor="middle">96.3 MiB</text>
<text x="778.8" y="904" class="x-label" text-anchor="end" transform="rotate(-35 778.8 904)">Polars low memory</text>
<rect x="885.2" y="860.75" width="184.8" height="25.25" fill="#ca8a04"/>
<text x="977.6" y="853.75" class="value-label" text-anchor="middle">92.8 MiB</text>
<text x="977.6" y="904" class="x-label" text-anchor="end" transform="rotate(-35 977.6 904)">DuckDB</text>
<text x="32" y="988" class="note">This chart ignores transient parsing peaks and focuses on memory left after the file is loaded.</text>

</svg>
